<svg width="1024" height="1024" viewBox="0 0 1024 1024" fill="none" xmlns="http://www.w3.org/2000/svg">
<path fill-rule="evenodd" clip-rule="evenodd" d="M156.019 970C215.957 970 267.693 934.84 291.706 884L732.304 884C723.13 864.588 718 842.892 718 820C718 796.714 723.308 774.666 732.781 755L291.231 755C267.014 704.687 215.555 669.973 155.981 670C73.1602 670 6 737.169 6 820C6 902.831 73.1602 970 156.019 970Z" fill="#F6D200"/>
<path fill-rule="evenodd" clip-rule="evenodd" d="M662 204C662 286.869 594.831 354 512 354C507.822 354 503.683 353.829 499.591 353.494L279.462 734.768C254.467 698.619 214.008 673.987 167.645 670.442L388.111 288.583C371.637 264.501 362 235.374 362 204C362 121.169 429.169 54 512 54C594.869 54 662 121.169 662 204Z" fill="#E7107E"/>
<path fill-rule="evenodd" clip-rule="evenodd" d="M635.895 288.591C611.07 324.882 570.715 349.702 524.41 353.494L744.548 734.783C727.807 758.986 718 788.35 718 820C718 902.831 785.169 970 868 970C950.832 970 1018 902.869 1018 820C1018 737.131 950.832 669.962 868 670C864.083 670 860.2 670.15 856.358 670.445L635.895 288.591Z" fill="#0FA4EA"/>
</svg>
