<svg xmlns="http://www.w3.org/2000/svg" xmlns:xlink="http://www.w3.org/1999/xlink" width="170" height="122" viewBox="0 0 170 122">
  <defs>
    <clipPath id="clip-path">
      <rect id="Rectangle_402" data-name="Rectangle 402" width="170" height="122" transform="translate(1116 -19732)" fill="#fff"/>
    </clipPath>
  </defs>
  <g id="Mask_Group_8" data-name="Mask Group 8" transform="translate(-1116 19732)" clip-path="url(#clip-path)">
    <g id="Group_2188" data-name="Group 2188" transform="translate(757 -20725.842)">
      <g id="Group_430" data-name="Group 430" transform="translate(-448 565.836)">
        <line id="Line_140" data-name="Line 140" x2="170" transform="translate(807 549.353)" fill="none" stroke="#000" stroke-miterlimit="10" stroke-width="1"/>
        <line id="Line_141" data-name="Line 141" x1="155.041" transform="translate(814.401 493.336)" fill="none" stroke="#000" stroke-miterlimit="10" stroke-width="1"/>
        <line id="Line_142" data-name="Line 142" x2="155.706" transform="translate(814.129 475.244)" fill="none" stroke="#000" stroke-miterlimit="10" stroke-width="1"/>
        <line id="Line_143" data-name="Line 143" y1="74.223" transform="translate(814.401 475.13)" fill="none" stroke="#000" stroke-miterlimit="10" stroke-width="1"/>
        <line id="Line_144" data-name="Line 144" y1="74.223" transform="translate(853.169 475.13)" fill="none" stroke="#000" stroke-miterlimit="10" stroke-width="1"/>
        <line id="Line_145" data-name="Line 145" y1="74.223" transform="translate(870.363 475.13)" fill="none" stroke="#000" stroke-miterlimit="10" stroke-width="1"/>
        <line id="Line_146" data-name="Line 146" y1="74.223" transform="translate(969.563 475.13)" fill="none" stroke="#000" stroke-miterlimit="10" stroke-width="1"/>
        <line id="Line_147" data-name="Line 147" y1="74.223" transform="translate(913.601 475.13)" fill="none" stroke="#000" stroke-miterlimit="10" stroke-width="1"/>
        <line id="Line_148" data-name="Line 148" y1="74.223" transform="translate(930.796 475.13)" fill="none" stroke="#000" stroke-miterlimit="10" stroke-width="1"/>
        <line id="Line_149" data-name="Line 149" x1="8.83" transform="translate(917.772 438.957)" fill="none" stroke="#000" stroke-miterlimit="10" stroke-width="1"/>
        <line id="Line_150" data-name="Line 150" y2="4.691" transform="translate(922.187 428.005)" fill="none" stroke="#000" stroke-miterlimit="10" stroke-width="1"/>
        <path id="Path_1401" data-name="Path 1401" d="M1047.028,624.706V604.769a10.728,10.728,0,0,1,10.728-10.728h0a10.728,10.728,0,0,1,10.727,10.728v19.937" transform="translate(-107.576 -75.356)" fill="none" stroke="#000" stroke-miterlimit="10" stroke-width="1"/>
        <path id="Path_1402" data-name="Path 1402" d="M833.908,624.706V604.769a10.728,10.728,0,0,1,10.728-10.728h0a10.728,10.728,0,0,1,10.727,10.728v19.937" transform="translate(-10.851 -75.356)" fill="none" stroke="#000" stroke-miterlimit="10" stroke-width="1"/>
        <path id="Path_1403" data-name="Path 1403" d="M935.589,609.878V574.761a13.392,13.392,0,0,1,13.393-13.392h0a13.392,13.392,0,0,1,13.392,13.392v35.117" transform="translate(-56.999 -60.528)" fill="none" stroke="#000" stroke-miterlimit="10" stroke-width="1"/>
        <path id="Path_1404" data-name="Path 1404" d="M1007.332,479V441.01a4.415,4.415,0,0,1,4.415-4.415h0a4.415,4.415,0,0,1,4.415,4.415V479" transform="translate(-89.56 -3.898)" fill="none" stroke="#000" stroke-miterlimit="10" stroke-width="1"/>
        <line id="Line_151" data-name="Line 151" x1="8.83" transform="translate(857.351 438.957)" fill="none" stroke="#000" stroke-miterlimit="10" stroke-width="1"/>
        <line id="Line_152" data-name="Line 152" y2="4.691" transform="translate(861.766 428.005)" fill="none" stroke="#000" stroke-miterlimit="10" stroke-width="1"/>
        <line id="Line_153" data-name="Line 153" x2="38.767" transform="translate(814.401 484.781)" fill="none" stroke="#000" stroke-miterlimit="10" stroke-width="1"/>
        <line id="Line_154" data-name="Line 154" x2="38.767" transform="translate(930.796 484.781)" fill="none" stroke="#000" stroke-miterlimit="10" stroke-width="1"/>
        <line id="Line_155" data-name="Line 155" x1="51.591" transform="translate(866.181 452.018)" fill="none" stroke="#000" stroke-miterlimit="10" stroke-width="1"/>
        <line id="Line_156" data-name="Line 156" x1="51.591" transform="translate(866.181 460.607)" fill="none" stroke="#000" stroke-miterlimit="10" stroke-width="1"/>
        <line id="Line_157" data-name="Line 157" y2="8.589" transform="translate(878.59 452.018)" fill="none" stroke="#000" stroke-miterlimit="10" stroke-width="1"/>
        <line id="Line_158" data-name="Line 158" y2="8.589" transform="translate(891.922 452.018)" fill="none" stroke="#000" stroke-miterlimit="10" stroke-width="1"/>
        <line id="Line_159" data-name="Line 159" y2="8.589" transform="translate(905.374 452.018)" fill="none" stroke="#000" stroke-miterlimit="10" stroke-width="1"/>
        <path id="Path_1405" data-name="Path 1405" d="M896.7,479V441.01a4.415,4.415,0,0,1,4.415-4.415h0a4.415,4.415,0,0,1,4.415,4.415V479" transform="translate(-39.349 -3.898)" fill="none" stroke="#000" stroke-miterlimit="10" stroke-width="1"/>
      </g>
    </g>
  </g>
</svg>
