<svg id="Component_33_1" data-name="Component 33 – 1" xmlns="http://www.w3.org/2000/svg" xmlns:xlink="http://www.w3.org/1999/xlink" width="170" height="122" viewBox="0 0 170 122">
  <defs>
    <clipPath id="clip-path">
      <rect id="Rectangle_403" data-name="Rectangle 403" width="170" height="122" transform="translate(0 2)" fill="#fff"/>
    </clipPath>
  </defs>
  <rect id="Rectangle_401" data-name="Rectangle 401" width="170" height="122" fill="#fff"/>
  <g id="Mask_Group_7" data-name="Mask Group 7" transform="translate(0 -2)" clip-path="url(#clip-path)">
    <g id="Group_2187" data-name="Group 2187" transform="translate(-993.5 -993)">
      <g id="empire-state-building" transform="translate(1036.092 993)">
        <g id="Group_374" data-name="Group 374" transform="translate(0)">
          <g id="Group_373" data-name="Group 373">
            <path id="Path_1397" data-name="Path 1397" d="M162.476,68.143V45h-9l-6.429-.206V24.429h-7.714V16.714h-7.714V0h-7.714V16.714h-7.714v7.714h-7.714V44.793L102.048,45h-9V68.142H85.334v59.143h84.857V68.143Zm-46.286-36H123.9V24.429h7.714v7.714h7.714V44.794H116.19V32.143Zm-5.143,87.428h-18V75.857h18Zm25.714,0h-5.143V69.428h-7.714v50.143h-5.143V68.143h-18V52.714h54V68.143h-18Zm25.714,0h-18V75.857h18Z" transform="translate(-85.334)" stroke="#fff" stroke-width="6.5"/>
          </g>
        </g>
        <g id="Group_376" data-name="Group 376" transform="translate(38.571 56.571)">
          <g id="Group_375" data-name="Group 375">
            <rect id="Rectangle_106" data-name="Rectangle 106" width="7.714" height="7.714" stroke="#fff" stroke-width="6.5"/>
          </g>
        </g>
        <g id="Group_378" data-name="Group 378" transform="translate(23.143 56.571)">
          <g id="Group_377" data-name="Group 377">
            <rect id="Rectangle_107" data-name="Rectangle 107" width="7.714" height="7.714" stroke="#fff" stroke-width="6.5"/>
          </g>
        </g>
        <g id="Group_380" data-name="Group 380" transform="translate(53.999 56.571)">
          <g id="Group_379" data-name="Group 379">
            <rect id="Rectangle_108" data-name="Rectangle 108" width="7.714" height="7.714" stroke="#fff" stroke-width="6.5"/>
          </g>
        </g>
        <g id="Group_382" data-name="Group 382" transform="translate(64.285 79.714)">
          <g id="Group_381" data-name="Group 381">
            <rect id="Rectangle_109" data-name="Rectangle 109" width="7.714" height="36" stroke="#fff" stroke-width="6.5"/>
          </g>
        </g>
        <g id="Group_384" data-name="Group 384" transform="translate(12.857 79.714)">
          <g id="Group_383" data-name="Group 383">
            <rect id="Rectangle_110" data-name="Rectangle 110" width="7.714" height="36" stroke="#fff" stroke-width="6.5"/>
          </g>
        </g>
      </g>
      <line id="Line_302" data-name="Line 302" x2="92.369" transform="translate(1032.5 1116.353)" fill="none" stroke="#000" stroke-miterlimit="10" stroke-width="1.1"/>
    </g>
  </g>
</svg>
