<svg xmlns="http://www.w3.org/2000/svg" width="152" height="367" viewBox="0 0 152 367" fill="none"><g clip-path="url(#clip0_205_444)"><path opacity="0.1" fill-rule="evenodd" clip-rule="evenodd" d="M-342 560.556C-342 561.27 -341.619 561.931 -341 562.288C-340.381 562.645 -339.619 562.645 -339 562.288L150.489 279.621C150.566 279.576 150.64 279.527 150.71 279.473C151.197 279.098 151.489 278.514 151.489 277.889C151.489 277.889 151.489 277.889 151.489 277.889L151.489 89.4443C151.489 89.3997 151.487 89.3554 151.484 89.3113C151.467 89.0491 151.398 88.7965 151.286 88.5662C151.114 88.2145 150.84 87.9148 150.489 87.7123L-175.83 -100.732C-176.449 -101.089 -177.211 -101.09 -177.83 -100.732C-178.449 -100.375 -178.83 -99.7147 -178.83 -99.0002L-178.83 89.4443C-178.83 90.1587 -178.449 90.8189 -177.83 91.1762L-17.6714 183.666L-341 370.379C-341.619 370.737 -342 371.397 -342 372.111L-342 560.556ZM-13.672 185.975L-338 373.266L-338 557.091L145.49 277.889L-13.672 185.975ZM147.489 274.424L147.489 92.9091L-9.67269 183.666L147.489 274.424ZM145.49 89.4444L-13.672 181.356L-174.83 88.2897L-174.83 -95.5357L145.49 89.4444Z" fill="#524A82"></path><path d="M-26.9996 175.5L40.2754 214.024" stroke="#F6D200" stroke-width="10" stroke-linecap="round" stroke-linejoin="round"></path></g><defs><clipPath id="clip0_205_444"><rect width="152" height="367" fill="white"></rect></clipPath></defs></svg>