<svg xmlns="http://www.w3.org/2000/svg" width="437" height="660" viewBox="0 0 437 660" fill="none"><g clip-path="url(#clip0_205_441)"><path opacity="0.1" fill-rule="evenodd" clip-rule="evenodd" d="M163.161 188.444C163.161 189.162 163.544 189.825 164.165 190.184L324.32 282.671L0.999841 469.379C0.381128 469.737 0 470.397 0 471.111L8.34465e-06 659.556C8.37589e-06 660.27 0.381241 660.93 1.00009 661.288C1.61894 661.645 2.38137 661.645 3.00017 661.288L492.328 378.714C492.384 378.688 492.439 378.659 492.493 378.628C493.115 378.27 493.498 377.606 493.498 376.889L493.498 188.444C493.498 187.727 493.115 187.063 492.493 186.705L166.174 -1.7398C165.553 -2.09872 164.787 -2.09878 164.166 -1.73996C163.544 -1.38113 163.161 -0.717953 163.161 -0.000240326L163.161 188.444ZM487.481 188.449L167.179 3.47953V187.285L328.337 280.351L487.481 188.449ZM332.336 282.66L489.48 191.914V373.409L332.336 282.66ZM328.319 284.98L487.481 376.894L4.00001 656.091L4 472.266L328.319 284.98Z" fill="#524A82"></path><path d="M128 587L201 544" stroke="#E7107E" stroke-width="10" stroke-linecap="round" stroke-linejoin="round"></path></g><defs><clipPath id="clip0_205_441"><rect width="437" height="660" fill="white"></rect></clipPath></defs></svg>